<svg width="98" height="98" viewBox="0 0 98 98" fill="none" xmlns="http://www.w3.org/2000/svg">
<circle cx="49" cy="49" r="46.5" stroke="white" stroke-width="3"/>
<path d="M59.8199 41.5739C59.8486 43.7976 60.6354 46.3096 62.1569 48.6188C63.7051 50.9685 65.7462 52.7029 67.8151 53.5934C68.4088 53.8489 69.0106 54.0338 69.6061 54.1451C68.309 55.0577 66.7295 55.5963 65.0231 55.5963C60.6176 55.5963 57.0465 52.0242 57.0465 47.6188C57.0466 45.2018 58.1219 43.0366 59.8199 41.5739ZM65.0231 39.6422C69.4284 39.6423 72.9995 43.2135 72.9996 47.6188C72.9996 49.8226 72.1056 51.8177 70.6608 53.2614C69.8858 53.235 69.0573 53.0393 68.2096 52.6744C66.3443 51.8715 64.4481 50.279 62.9918 48.069C61.5356 45.8588 60.8198 43.4875 60.818 41.4567C60.8178 41.2414 60.8268 41.0306 60.8424 40.8248C62.0581 40.0752 63.49 39.6422 65.0231 39.6422Z" fill="white"/>
<path d="M59.5309 44.5837C60.0867 44.7085 58.6762 46.5918 58.9206 48.9675C58.9573 49.3222 59.113 50.4829 59.9792 51.5055C60.2444 51.8184 61.1603 52.8079 63.0778 53.1794C65.6184 53.6719 66.4789 53.9471 66.5387 54.4763C66.622 55.2303 63.6684 56.4909 58.946 59.4245C46.4736 67.176 43.6119 69.2623 41.5221 68.6345C40.1377 68.2178 39.6383 66.7775 39.8776 65.4528C40.0964 64.2466 40.9317 63.1245 46.6842 57.1618C48.9928 54.7702 49.3788 54.4106 51.6432 52.0925C56.9411 46.6687 58.9186 44.4456 59.5309 44.5837ZM56.1628 53.4782C55.9172 53.1848 55.4806 53.1459 55.1872 53.3913L52.5592 55.5905C52.2658 55.8361 52.2267 56.2736 52.4723 56.5671L53.0368 57.2409C53.2824 57.534 53.719 57.5731 54.0124 57.3278L56.6403 55.1276C56.9335 54.8821 56.9725 54.4455 56.7272 54.152L56.1628 53.4782Z" fill="white"/>
<path d="M55.1756 39.7601C61.4131 39.1521 66.5706 35.0982 68.2795 29.538C70.5148 22.2662 65.7337 16.0595 64.923 15.0076C57.9285 5.92778 45.2439 8.64208 44.4052 8.83596C42.1603 9.35531 34.935 11.0169 31.1873 18.1132C27.7018 24.7138 28.8888 32.2172 31.5233 36.5211C32.8427 38.6766 35.2166 41.1918 35.421 41.4067C36.1676 42.1928 47.1014 51.3059 50.5 54M57.3197 58.4952C61.4771 61.4596 64.9318 63.8186 66.9311 68.119C67.1329 68.5524 67.2829 68.9708 67.4136 69.3972C68.9752 74.4977 66.9671 79.085 66.6794 79.7052C64.6002 84.1802 60.7025 86.0997 58.554 87.1586C52.3674 90.2054 46.4844 89.2211 44.2105 88.807C41.197 88.2587 32.5988 86.6112 30.0266 79.9123C28.8783 76.9199 28.6563 72.2615 31.0837 70.0709C32.5128 68.7813 34.3885 68.4567 34.3885 68.4567C36.1702 68.1488 37.0975 68.812 38.7503 68.383C40.0083 68.0567 40.9084 67.2987 41.4742 66.7066" stroke="white" stroke-width="3" stroke-miterlimit="10" stroke-linecap="round"/>
</svg>
